<svg xmlns="http://www.w3.org/2000/svg" viewBox="0 0 200 200">
  <defs>
    <pattern id="butterflies" patternUnits="userSpaceOnUse" width="100" height="100">
      <!-- Mariposa 1 -->
      <g transform="translate(25, 25)" opacity="0.1">
        <path d="M0 0 Q5 -5 10 0 Q5 5 0 0 M0 0 Q-5 -5 -10 0 Q-5 5 0 0" fill="#748574"/>
        <circle cx="0" cy="0" r="1" fill="#748574"/>
      </g>
      
      <!-- Mariposa 2 -->
      <g transform="translate(75, 35)" opacity="0.08">
        <path d="M0 0 Q4 -4 8 0 Q4 4 0 0 M0 0 Q-4 -4 -8 0 Q-4 4 0 0" fill="#7F7F6F"/>
        <circle cx="0" cy="0" r="0.8" fill="#7F7F6F"/>
      </g>
      
      <!-- Mariposa 3 -->
      <g transform="translate(45, 75)" opacity="0.06">
        <path d="M0 0 Q3 -3 6 0 Q3 3 0 0 M0 0 Q-3 -3 -6 0 Q-3 3 0 0" fill="#858F89"/>
        <circle cx="0" cy="0" r="0.6" fill="#858F89"/>
      </g>
      
      <!-- Mariposa 4 -->
      <g transform="translate(85, 85)" opacity="0.05">
        <path d="M0 0 Q2 -2 4 0 Q2 2 0 0 M0 0 Q-2 -2 -4 0 Q-2 2 0 0" fill="#7D8D9E"/>
        <circle cx="0" cy="0" r="0.4" fill="#7D8D9E"/>
      </g>
    </pattern>
  </defs>
  
  <rect width="200" height="200" fill="url(#butterflies)"/>
</svg> 